<?xml version="1.0" encoding="UTF-8" standalone="no"?>
<svg xmlns="http://www.w3.org/2000/svg" height="56" width="78" version="1.1" xmlns:figma="http://www.figma.com/figma/ns" xmlns:xlink="http://www.w3.org/1999/xlink" viewBox="0 0 78 56">
 <g id="Canvas" figma:type="canvas" transform="matrix(2 0 0 2 748 686)">
  <g id="Group" style="mix-blend-mode:normal" figma:type="frame">
   <g id="Subtract" style="mix-blend-mode:normal" figma:type="vector-operation">
    <use style="mix-blend-mode:normal" xlink:href="#path0_fill" transform="translate(-373.75 -343)" fill="#FFFFFF"/>
   </g>
  </g>
 </g>
 <defs>
  <path id="path0_fill" d="m7.8125 0c-0.8629 0-1.5625 0.69644-1.5625 1.5555 0 0.8592 0.6996 1.5556 1.5625 1.5556h2.8125 7.819c0.86 0 1.556 0.6965 1.556 1.5556s-0.696 1.5555-1.556 1.5555h-7.819-0.313c-0.8624 0-1.562 0.6965-1.562 1.5556 0 0.8558 0.6942 1.5502 1.553 1.5555h0.009 0.313 10.319c0.86 0 1.556 0.6967 1.556 1.5557s-0.696 1.555-1.556 1.555h-10.319-5.3125c-0.8629 0-1.5625 0.697-1.5625 1.556s0.6996 1.556 1.5625 1.556h5.3125 5.319c0.86 0 1.556 0.696 1.556 1.555s-0.696 1.556-1.556 1.556h-5.319-0.313-0.009c-0.8588 0.005-1.553 0.699-1.553 1.555 0 0.859 0.6996 1.556 1.562 1.556h0.313 10.319c0.86 0 1.556 0.696 1.556 1.555s-0.696 1.556-1.556 1.556h-10.319-5.3195-3.743c-0.86295 0-1.5625 0.696-1.5625 1.555 0 0.86 0.69955 1.556 1.5625 1.556h10.312 5.314 20.312c0.69 0 1.25-0.557 1.25-1.244v-25.512c0-0.68684-0.56-1.244-1.25-1.244h-14.062-11.563-4.0625zm13.99 4.5714c0-0.8678 0.703-1.5714 1.571-1.5714h4.752c0.868 0 1.571 0.7036 1.571 1.5714 0 0.8679-0.703 1.5714-1.571 1.5714h-4.752c-0.868 0-1.571-0.7035-1.571-1.5714zm3.624 4.7143c-0.868 0-1.572 0.7036-1.572 1.5713 0 0.868 0.704 1.572 1.572 1.572h4.752c0.867 0 1.571-0.704 1.571-1.572 0-0.8677-0.704-1.5713-1.571-1.5713h-4.752zm-6.677 7.8573c0-0.868 0.704-1.572 1.571-1.572h4.752c0.868 0 1.572 0.704 1.572 1.572s-0.704 1.571-1.572 1.571h-4.752c-0.867 0-1.571-0.703-1.571-1.571zm6.677 4.714c-0.868 0-1.572 0.704-1.572 1.572 0 0.867 0.704 1.571 1.572 1.571h4.752c0.867 0 1.571-0.704 1.571-1.571 0-0.868-0.704-1.572-1.571-1.572h-4.752z" fill-rule="evenodd"/>
 </defs>
</svg>
